<svg width="118" height="49" viewBox="0 0 118 49" version="1.1"
  xmlns:xlink="http://www.w3.org/1999/xlink"
  xmlns="http://www.w3.org/2000/svg">
<style>
    svg {
      font-family: -apple-system, BlinkMacSystemFont, Segoe UI, Helvetica, Arial, sans-serif, Apple Color Emoji, Segoe UI Emoji;
    }
</style>
<defs>
<linearGradient xlink:href="#a" id="j" x1="18" x2="18" y1="32" y2="37" gradientUnits="userSpaceOnUse" />
<linearGradient id="a">
  <stop offset=".1" style="stop-color:#f3f1d6" />
  <stop offset=".2" style="stop-color:#f8f4e7" />
  <stop offset=".6" style="stop-color:#e6e4ca" />
  <stop offset="1" style="stop-color:#d1d0b7" />
</linearGradient>
<linearGradient xlink:href="#e" id="i" x1="22" x2="6.5" y1="28.5" y2="22.5" gradientUnits="userSpaceOnUse" />

<linearGradient id="e">
<stop offset="0" style="stop-color:#4c4c32" />
<stop offset="1" style="stop-color:#636344" />
</linearGradient>
<linearGradient xlink:href="#b" id="h" x1="20" x2="20" y1="12.5" y2="37" gradientUnits="userSpaceOnUse" />
<linearGradient id="b">
  <stop offset="0" style="stop-color:#fffdf9" />
  <stop offset=".4" style="stop-color:#f3f1d6" />
  <stop offset=".7" style="stop-color:#dcdbc3" />
  <stop offset="1" style="stop-color:#c4c28f" />
</linearGradient>
<linearGradient xlink:href="#c" id="g" x1="30" y1="15" x2="36" y2="15" gradientUnits="userSpaceOnUse" />

<linearGradient id="c">
<stop offset="0" style="stop-color:#e2ddad" />
<stop offset="1" style="stop-color:#757356" />
</linearGradient>
<linearGradient xlink:href="#d" id="f" x1="9" x2="22.5" y1="4" y2="28" gradientUnits="userSpaceOnUse" />
<linearGradient id="d">
  <stop offset="0" style="stop-color:#7e7d59" />
  <stop offset="1" style="stop-color:#4c4c32" />
</linearGradient>
</defs>
<rect style="fill:#222;stroke:#33bacc;stroke-width:3" id="btn" width="114" height="46" x="1.5" y="1.5" ry="5" rx="5" />
<path d="M 33.1,11.9 H 30.7 18.8 c -1.3,0 -2.5,0.9 -2.9,2.1 -0.2,0.6 -0.2,1.2 -0.2,1.8 -0.1,4 -0.6,8.1 -0.9,12.1 -0.1,1 -0.1,2.1 -0.2,3.1 0,0 16.7,5.6 16.6,5.6 0.7,-0.5 1,-2.1 0.8,-2.9 0.1,-4.3 0.8,-10.1 1,-15.2 1.3,0 2.7,-1.4 2.9,-2.3 0.4,-1.6 0,-2.4 -0.5,-3 -0.6,-0.6 -1.7,-1.3 -2.3,-1.3 z" style="fill:url(#f)" />
<circle style="fill:url(#c)" cx="33" cy="15.2" r="3" />
<path d="m 18.9,12.3 c -1.6,0 -2.9,1.3 -2.9,2.9 0,5.8 -1.3,13.6 -1.3,19.1 h 11.1 c 0,1.6 1.3,2.9 2.9,2.9 1,0 2.9,-0.5 2.9,-2.9 0,-4.6 0.8,-10.8 1.1,-16.2 0.2,-2.7 -0.1,-6.5 2.5,-4.6 -0.3,-0.6 -1.5,-1.3 -2.3,-1.2 z" style="fill:url(#h)" />
<path d="m 14.7,31 c -1.2,0 -2.5,1.6 -2.5,3.3 0,1.7 1,3.3 2.5,3.3 h 14 c 1.1,0 1.9,-0.4 2.5,-1 l -0.3,-0.3 c -0.1,0.1 -0.7,0 -0.9,0 A 1.3,1.3 0 0 1 29.4,36 c -0.4,-0.4 -0.7,-1 -0.7,-1.7 0,-1 0.4,-1.8 0.6,-2.1 0.3,-0.4 0.5,-0.3 0.7,-0.4 0.4,-0.2 0.4,-0.2 0,-0.5 -0.4,-0.3 -0.7,-0.2 -1.1,-0.2 z" style="fill:url(#i)" />
<path d="m 14.7,31.4 c -0.9,0 -2.1,1.3 -2.1,2.9 0,1.6 0.9,2.9 2.1,2.9 h 14 c 1,0 1.4,-0.1 2,-0.6 -0.9,0.4 -2.3,-0.8 -2.3,-2.3 0,-0.9 0.3,-1.8 0.7,-2.3 0.3,-0.5 0.4,-0.4 0.8,-0.4 -0.3,-0.2 -0.6,-0.1 -1,-0.1 z" style="fill:url(#j)" />
<text style="font-weight:bold;font-size:16px;letter-spacing:2px;fill:#f3f1ff" x="55" y="32" id="label">Blog</text>
</svg>
