<svg width="144" height="49" viewBox="0 0 144 49" version="1.1"
  xmlns:xlink="http://www.w3.org/1999/xlink"
xmlns="http://www.w3.org/2000/svg">
<style>
svg {
      font-family: -apple-system, BlinkMacSystemFont, Segoe UI, Helvetica, Arial, sans-serif, Apple Color Emoji, Segoe UI Emoji;
    }
</style>
<rect style="fill:#222222;stroke:#33bacc;stroke-width:3" id="btn" width="141" height="46" x="1.5" y="1.5" ry="5" rx="5" />
<text style="font-weight:bold;font-size:16px;letter-spacing:2px;fill:#f3f1ff" x="57.5" y="30.5" id="label">Contact</text>
<path d="m 40.9,15.9 h -3.4 v -1.6 c 0,-0.2 -0.1,-0.2 -0.2,-0.2 h -1.6 c -0.2,0 -0.2,0.1 -0.2,0.2 v 1.6 h -5.7 v -1.6 c 0,-0.2 -0.1,-0.2 -0.2,-0.2 h -1.6 c -0.2,0 -0.2,0.1 -0.2,0.2 v 1.6 h -5.7 v -1.6 c 0,-0.2 -0.1,-0.2 -0.2,-0.2 h -1.6 c -0.2,0 -0.2,0.1 -0.2,0.2 v 1.6 h -3.4 c -0.5,0 -1,0.4 -1,1 v 16.9 c 0,0.5 0.4,1 1,1 H 40.8 c 0.5,0 1,-0.4 1,-1 V 16.8 c 0,-0.5 -0.4,-1 -1,-1 z M 33.1,30.9 h -1.3 c -0.2,0 -0.2,-0.1 -0.2,-0.2 -0.1,-1.5 -1.4,-2.7 -2.8,-2.7 -1.5,0 -2.8,1.1 -2.8,2.7 0,0.2 -0.1,0.2 -0.2,0.2 H 24.3 c -0.2,0 -0.2,-0.1 -0.2,-0.2 0.1,-1.5 1,-2.9 2.2,-3.7 -0.6,-0.6 -0.9,-1.4 -0.9,-2.2 0,-1.8 1.5,-3.3 3.3,-3.3 1.8,0 3.3,1.5 3.3,3.3 0,0.9 -0.3,1.6 -0.9,2.2 1.2,0.8 2.1,2.1 2.2,3.7 0,0.2 -0.1,0.2 -0.2,0.2 z m -4.4,-7.7 c -0.8,0 -1.5,0.7 -1.5,1.5 0,0.8 0.7,1.5 1.5,1.5 0.8,0 1.5,-0.7 1.5,-1.5 0,-0.8 -0.7,-1.5 -1.5,-1.5 z" style="fill:#ffffff" />

</svg>
