<?xml version="1.0" encoding="UTF-8" standalone="no"?>
<!-- Created with Inkscape (http://www.inkscape.org/) -->

<svg
   width="32"
   height="32"
   viewBox="0 0 32 32"
   version="1.1"
   id="svg1"
   inkscape:version="1.4.2 (ebf0e940d0, 2025-05-08)"
   sodipodi:docname="scroll.svg"
   xmlns:inkscape="http://www.inkscape.org/namespaces/inkscape"
   xmlns:sodipodi="http://sodipodi.sourceforge.net/DTD/sodipodi-0.dtd"
   xmlns:xlink="http://www.w3.org/1999/xlink"
   xmlns="http://www.w3.org/2000/svg"
   xmlns:svg="http://www.w3.org/2000/svg">
  <sodipodi:namedview
     id="namedview1"
     pagecolor="#ffffff"
     bordercolor="#000000"
     borderopacity="0.25"
     inkscape:showpageshadow="2"
     inkscape:pageopacity="0.0"
     inkscape:pagecheckerboard="0"
     inkscape:deskcolor="#d1d1d1"
     inkscape:document-units="px"
     inkscape:zoom="8"
     inkscape:cx="26"
     inkscape:cy="10.4375"
     inkscape:window-width="1920"
     inkscape:window-height="1054"
     inkscape:window-x="0"
     inkscape:window-y="0"
     inkscape:window-maximized="1"
     inkscape:current-layer="layer1" />
  <defs
     id="defs1">
    <linearGradient
       id="linearGradient20"
       inkscape:collect="always">
      <stop
         style="stop-color:#4c4c32;stop-opacity:1;"
         offset="0"
         id="stop20" />
      <stop
         style="stop-color:#636344;stop-opacity:1;"
         offset="1"
         id="stop21" />
    </linearGradient>
    <inkscape:path-effect
       effect="offset"
       id="path-effect16"
       is_visible="true"
       lpeversion="1.3"
       linejoin_type="miter"
       unit="mm"
       offset="0.1"
       miter_limit="2.3"
       attempt_force_join="false"
       update_on_knot_move="true" />
    <linearGradient
       id="linearGradient16"
       inkscape:collect="always">
      <stop
         style="stop-color:#7e7d59;stop-opacity:1;"
         offset="0"
         id="stop15" />
      <stop
         style="stop-color:#4c4c32;stop-opacity:1;"
         offset="1"
         id="stop16" />
    </linearGradient>
    <inkscape:path-effect
       effect="offset"
       id="path-effect14"
       is_visible="true"
       lpeversion="1.3"
       linejoin_type="miter"
       unit="mm"
       offset="0.1"
       miter_limit="4"
       attempt_force_join="false"
       update_on_knot_move="true" />
    <linearGradient
       id="linearGradient12"
       inkscape:collect="always">
      <stop
         style="stop-color:#e2ddad;stop-opacity:1;"
         offset="0"
         id="stop13" />
      <stop
         style="stop-color:#757356;stop-opacity:1;"
         offset="1"
         id="stop14" />
    </linearGradient>
    <linearGradient
       id="linearGradient7"
       inkscape:collect="always">
      <stop
         style="stop-color:#fffdf9;stop-opacity:1;"
         offset="0"
         id="stop8" />
      <stop
         style="stop-color:#f6f4e0;stop-opacity:1;"
         offset="0.07572459"
         id="stop12" />
      <stop
         style="stop-color:#f3f1d6;stop-opacity:1;"
         offset="0.42375582"
         id="stop10" />
      <stop
         style="stop-color:#dcdbc3;stop-opacity:1;"
         offset="0.74827427"
         id="stop11" />
      <stop
         style="stop-color:#c4c28f;stop-opacity:1;"
         offset="1"
         id="stop9" />
    </linearGradient>
    <linearGradient
       id="linearGradient4"
       inkscape:collect="always">
      <stop
         style="stop-color:#f3f1d6;stop-opacity:1;"
         offset="0.12348369"
         id="stop4" />
      <stop
         style="stop-color:#f8f4e7;stop-opacity:1;"
         offset="0.26192942"
         id="stop5" />
      <stop
         style="stop-color:#e6e4ca;stop-opacity:1;"
         offset="0.64783645"
         id="stop6" />
      <stop
         style="stop-color:#d1d0b7;stop-opacity:1;"
         offset="1"
         id="stop7" />
    </linearGradient>
    <linearGradient
       inkscape:collect="always"
       xlink:href="#linearGradient4"
       id="linearGradient5"
       x1="9.1967688"
       y1="22.657536"
       x2="9.1967688"
       y2="27.851562"
       gradientUnits="userSpaceOnUse" />
    <linearGradient
       inkscape:collect="always"
       xlink:href="#linearGradient7"
       id="linearGradient9"
       x1="15.757812"
       y1="2.9316401"
       x2="15.757812"
       y2="27.851562"
       gradientUnits="userSpaceOnUse" />
    <linearGradient
       inkscape:collect="always"
       xlink:href="#linearGradient12"
       id="linearGradient14"
       x1="27.210751"
       y1="4.1406312"
       x2="21.947727"
       y2="8.7413549"
       gradientUnits="userSpaceOnUse" />
    <linearGradient
       inkscape:collect="always"
       xlink:href="#linearGradient16"
       id="linearGradient14-9"
       x1="8.9047108"
       y1="4.1651807"
       x2="22.485502"
       y2="27.863834"
       gradientUnits="userSpaceOnUse" />
    <linearGradient
       inkscape:collect="always"
       xlink:href="#linearGradient20"
       id="linearGradient21"
       x1="22.359093"
       y1="28.40106"
       x2="6.5210967"
       y2="22.657536"
       gradientUnits="userSpaceOnUse" />
  </defs>
  <g
     inkscape:label="Layer 1"
     inkscape:groupmode="layer"
     id="layer1">
    <path
       id="path1-3-2-2"
       style="fill:url(#linearGradient14-9);fill-opacity:1;stroke-width:7.55906;stroke-linecap:round;stroke-linejoin:round"
       d="m 24.862304,3.1563119 c -0.808355,0.021638 -1.618113,0.00409 -2.427043,0.00977 -3.954619,0.00156 -7.909314,-0.00313 -11.863885,0.00235 C 9.282617,3.2002275 8.07196,4.0749085 7.626807,5.2829764 7.393059,5.8474529 7.406642,6.465594 7.408525,7.0645111 7.332806,11.11486 6.841523,15.140844 6.496241,19.173273 c -0.091026,1.042268 -0.174758,2.085255 -0.239405,3.129523 -0.892602,0.185077 -1.545241,0.946853 -1.913572,1.741499 -0.539042,1.16216 -0.415521,2.591067 0.265863,3.667998 0.425003,0.683128 1.193902,1.181121 2.016817,1.131519 4.699002,-0.0014 9.398055,0.0029 14.097025,-0.0022 0.689249,-4.16e-4 1.376907,-0.209503 1.926612,-0.631577 0.354126,-0.28288 0.685942,-0.666056 0.868906,-1.102457 0.318233,-0.684111 0.30275,-1.451658 0.301851,-2.188681 0.07333,-3.799719 0.487413,-7.581107 0.785046,-11.36708 0.102922,-1.273433 0.197722,-2.54763 0.268639,-3.8232875 C 26.160691,9.681789 27.36059,8.795604 27.792036,7.5839785 28.170558,6.5806256 28.002561,5.4021289 27.374023,4.5352181 26.990396,3.9317234 26.340667,3.5446311 25.682445,3.3030279 25.418784,3.2134683 25.141906,3.1530955 24.862304,3.1563119 Z" />
    <path
       id="path1-3-2"
       style="fill:url(#linearGradient14);fill-opacity:1;stroke-width:7.55906;stroke-linecap:round;stroke-linejoin:round"
       d="M 27.614292,6.4511571 A 2.9047651,2.9047651 0 0 1 24.709527,9.3559222 2.9047651,2.9047651 0 0 1 21.804762,6.4511571 2.9047651,2.9047651 0 0 1 24.709527,3.546392 2.9047651,2.9047651 0 0 1 27.614292,6.4511571 Z" />
    <path
       id="path1-3"
       style="fill:url(#linearGradient9);stroke-width:7.55906;stroke-linecap:round;stroke-linejoin:round"
       d="M 10.698831,3.5462074 C 9.0941764,3.545387 7.7928393,4.8458496 7.7925809,6.4505043 c 0,5.8365907 -1.2714844,13.6435357 -1.2714844,19.1113287 H 17.626565 c 2.59e-4,1.604654 1.301596,2.905117 2.90625,2.904296 1.04007,-1.67e-4 2.904297,-0.456869 2.904297,-2.904296 0,-4.636309 0.800088,-10.832426 1.078125,-16.2050787 C 24.712521,6.6376779 24.527707,2.8647634 27.068163,4.755723 26.757249,4.1683086 25.515082,3.4289503 24.708596,3.5462074 H 10.732034 Z"
       sodipodi:nodetypes="cccccsccccc" />
    <path
       id="path1-1"
       style="fill:url(#linearGradient21);fill-opacity:1;stroke-width:7.55906;stroke-linecap:round;stroke-linejoin:round"
       d="m 6.5214844,22.279297 c -1.2172698,1.96e-4 -2.5153492,1.571225 -2.515625,3.283203 2.821e-4,1.747316 1.0382272,3.283203 2.515625,3.283203 H 20.53125 c 1.068246,0.03113 1.940922,-0.372309 2.501996,-0.992626 l -0.273742,-0.259886 c -0.137355,0.0793 -0.736586,0.03694 -0.909895,-0.0092 -0.173308,-0.04614 -0.375224,-0.163867 -0.560547,-0.347656 -0.370644,-0.367577 -0.666019,-0.987979 -0.666015,-1.673828 -8e-6,-0.997583 0.370316,-1.776177 0.597657,-2.11719 0.279276,-0.437685 0.538802,-0.33856 0.691455,-0.392577 0.442667,-0.156637 0.448092,-0.182117 0.01367,-0.523437 -0.41311,-0.265753 -0.727804,-0.25 -1.123047,-0.25 z"
       sodipodi:nodetypes="ccccccscccscsc" />
    <path
       id="path1"
       style="fill:url(#linearGradient5);fill-opacity:1;stroke-width:7.55906;stroke-linecap:round;stroke-linejoin:round"
       d="m 6.5210965,22.657536 c -0.9204223,1.48e-4 -2.1351301,1.300405 -2.1353885,2.904297 2.59e-4,1.603891 0.9271842,2.904296 2.1353885,2.904296 H 20.532815 c 0.967583,0.0036 1.426027,-0.100939 2.030813,-0.563232 -0.940155,0.396905 -2.31894,-0.757538 -2.31893,-2.341064 -7e-6,-0.941221 0.306294,-1.789613 0.720763,-2.323003 0.280551,-0.458017 0.426741,-0.37372 0.810726,-0.434638 -0.314226,-0.207664 -0.593444,-0.146656 -0.973841,-0.146656 z"
       sodipodi:nodetypes="ccccccsccc" />
  </g>
</svg>
